<svg width="126" height="103" viewBox="0 0 126 103" fill="none" xmlns="http://www.w3.org/2000/svg">
<g id="fa-solid:cloud-upload-alt" clip-path="url(#clip0_171_1943)">
<path id="Vector" d="M105.722 45.4797C106.527 43.3534 106.979 41.0285 106.979 38.6041C106.979 28.0722 98.5317 19.5275 88.12 19.5275C84.25 19.5275 80.6354 20.7198 77.6494 22.7467C72.2078 13.2083 62.0515 6.80969 50.4022 6.80969C33.0363 6.80969 18.9707 21.0377 18.9707 38.6041C18.9707 39.1407 18.9904 39.6772 19.01 40.2137C8.00898 44.1284 0.111816 54.7398 0.111816 67.2192C0.111816 83.017 12.7826 95.8342 28.4002 95.8342H100.693C114.581 95.8342 125.838 84.4478 125.838 70.3986C125.838 58.0981 117.194 47.8245 105.722 45.4797ZM77.394 57.6808H64.5464V79.9369C64.5464 81.6856 63.132 83.1164 61.4032 83.1164H51.9738C50.2451 83.1164 48.8306 81.6856 48.8306 79.9369V57.6808H35.983C33.1738 57.6808 31.7791 54.2629 33.7632 52.2559L54.4687 31.3113C55.6866 30.0793 57.6904 30.0793 58.9084 31.3113L79.6139 52.2559C81.598 54.2629 80.1836 57.6808 77.394 57.6808Z" fill="#5E9BFF"/>
</g>
<defs>
<clipPath id="clip0_171_1943">
<rect width="125.726" height="101.742" fill="white" transform="translate(0.111816 0.450806)"/>
</clipPath>
</defs>
</svg>
